<?xml version="1.0" encoding="UTF-8" standalone="no"?>
<!-- Created with Inkscape (http://www.inkscape.org/) -->

<svg
   width="100mm"
   height="100mm"
   viewBox="0 0 100 100"
   version="1.1"
   id="svg1"
   sodipodi:docname="board.svg"
   inkscape:version="1.3 (0e150ed6c4, 2023-07-21)"
   xmlns:inkscape="http://www.inkscape.org/namespaces/inkscape"
   xmlns:sodipodi="http://sodipodi.sourceforge.net/DTD/sodipodi-0.dtd"
   xmlns="http://www.w3.org/2000/svg"
   xmlns:svg="http://www.w3.org/2000/svg">
  <sodipodi:namedview
     id="namedview1"
     pagecolor="#ffffff"
     bordercolor="#000000"
     borderopacity="0.25"
     inkscape:showpageshadow="2"
     inkscape:pageopacity="0.0"
     inkscape:pagecheckerboard="0"
     inkscape:deskcolor="#d1d1d1"
     inkscape:document-units="mm"
     inkscape:zoom="0.72426347"
     inkscape:cx="396.95499"
     inkscape:cy="229.88872"
     inkscape:window-width="1920"
     inkscape:window-height="1009"
     inkscape:window-x="-8"
     inkscape:window-y="-8"
     inkscape:window-maximized="1"
     inkscape:current-layer="layer1" />
  <defs
     id="defs1" />
  <g
     inkscape:label="Layer 1"
     inkscape:groupmode="layer"
     id="layer1">
    <path
       d="M 88.693666,91.504046 H 12.278397 A 8.3366163,8.3366163 0 0 1 3.9513346,83.176984 V 20.965489 a 8.3366163,8.3366163 0 0 1 8.3270624,-8.327065 h 76.415269 a 8.3366163,8.3366163 0 0 1 8.327063,8.327065 v 62.209902 a 8.3366163,8.3366163 0 0 1 -8.327063,8.327065 z M 12.278397,13.618141 a 7.3558381,7.3558381 0 0 0 -7.3473451,7.347348 v 62.209902 a 7.3558381,7.3558381 0 0 0 7.3473451,7.347348 h 76.415269 a 7.3558381,7.3558381 0 0 0 7.347347,-7.347348 V 20.965489 a 7.3558381,7.3558381 0 0 0 -7.347347,-7.347348 z"
       fill="#3f3d56"
       id="path27"
       style="stroke-width:0.530724" />
    <path
       d="M 80.008364,31.319918 H 41.442755 a 1.3379558,1.3379558 0 0 1 -1.359714,-1.220666 1.2885985,1.2885985 0 0 1 1.286475,-1.357592 h 39.257672 c 1.293374,1.136281 0.505249,2.577196 -0.619356,2.577196 z"
       fill="#cccccc"
       id="path28"
       style="stroke-width:0.530724" />
    <path
       d="M 80.008364,38.085059 H 41.442755 A 1.3379558,1.3379558 0 0 1 40.083041,36.864395 1.2885985,1.2885985 0 0 1 41.369516,35.5068 h 39.257672 c 1.293374,1.136281 0.505249,2.577198 -0.619356,2.577198 z"
       fill="#cccccc"
       id="path29"
       style="stroke-width:0.530724" />
    <path
       d="M 33.105077,41.936527 H 21.335206 a 1.4510001,1.4510001 0 0 1 -1.449407,-1.44941 V 26.597534 a 1.4510001,1.4510001 0 0 1 1.449407,-1.449408 h 11.769871 a 1.4515308,1.4515308 0 0 1 1.449408,1.449408 v 13.889583 a 1.4510001,1.4510001 0 0 1 -1.449408,1.44941 z"
       fill="#3f3d56"
       id="path30"
       style="stroke-width:0.530724" />
    <path
       d="M 79.896381,51.935369 H 21.039062 a 1.3379558,1.3379558 0 0 1 -1.359715,-1.220664 1.2885985,1.2885985 0 0 1 1.287005,-1.357592 h 59.549383 c 1.293376,1.13628 0.50525,2.577196 -0.619354,2.577196 z"
       fill="#6c63ff"
       id="path31"
       style="stroke-width:0.530724" />
    <path
       d="M 79.896381,58.702104 H 21.039062 a 1.3379558,1.3379558 0 0 1 -1.359715,-1.220666 1.2885985,1.2885985 0 0 1 1.287005,-1.357593 h 59.549383 c 1.293376,1.137343 0.50525,2.578259 -0.619354,2.578259 z"
       fill="#6c63ff"
       id="path32"
       style="stroke-width:0.530724" />
    <path
       d="M 79.896381,65.464593 H 21.039062 a 1.3374251,1.3374251 0 0 1 -1.359715,-1.220666 1.2885985,1.2885985 0 0 1 1.286475,-1.357593 h 59.549913 c 1.293376,1.137343 0.50525,2.578259 -0.619354,2.578259 z"
       fill="#6c63ff"
       id="path33"
       style="stroke-width:0.530724" />
    <path
       d="M 79.896381,72.230797 H 21.039062 a 1.3374251,1.3374251 0 0 1 -1.359715,-1.220666 1.2885985,1.2885985 0 0 1 1.286475,-1.357593 h 59.549913 c 1.293376,1.136281 0.50525,2.577195 -0.619354,2.577195 z"
       fill="#6c63ff"
       id="path34"
       style="stroke-width:0.530724" />
    <path
       d="M 79.896381,78.993284 H 21.039062 a 1.3379558,1.3379558 0 0 1 -1.359715,-1.220664 1.2885985,1.2885985 0 0 1 1.287005,-1.357593 h 59.549383 c 1.293376,1.137342 0.50525,2.578257 -0.619354,2.578257 z"
       fill="#6c63ff"
       id="path35"
       style="stroke-width:0.530724" />
    <path
       d="m 72.039539,6.2707953 a 2.4519461,2.4519461 0 0 1 2.449292,2.4492919 v 7.8372058 a 2.4519461,2.4519461 0 0 1 -2.449292,2.450885 H 28.933584 A 2.4519461,2.4519461 0 0 1 26.484293,16.558884 V 8.7200872 a 2.4519461,2.4519461 0 0 1 2.449291,-2.4492919"
       fill="#6c63ff"
       id="path36"
       style="stroke-width:0.530724" />
  </g>
</svg>
