<?xml version="1.0" encoding="UTF-8" standalone="no"?>
<!-- Created with Inkscape (http://www.inkscape.org/) -->

<svg
   width="100mm"
   height="100mm"
   viewBox="0 0 100 100"
   version="1.1"
   id="svg1"
   sodipodi:docname="board2.svg"
   inkscape:version="1.3 (0e150ed6c4, 2023-07-21)"
   xmlns:inkscape="http://www.inkscape.org/namespaces/inkscape"
   xmlns:sodipodi="http://sodipodi.sourceforge.net/DTD/sodipodi-0.dtd"
   xmlns="http://www.w3.org/2000/svg"
   xmlns:svg="http://www.w3.org/2000/svg">
  <sodipodi:namedview
     id="namedview1"
     pagecolor="#ffffff"
     bordercolor="#000000"
     borderopacity="0.25"
     inkscape:showpageshadow="2"
     inkscape:pageopacity="0.0"
     inkscape:pagecheckerboard="0"
     inkscape:deskcolor="#d1d1d1"
     inkscape:document-units="mm"
     inkscape:zoom="0.72426347"
     inkscape:cx="396.95499"
     inkscape:cy="450.8028"
     inkscape:window-width="1920"
     inkscape:window-height="1009"
     inkscape:window-x="-8"
     inkscape:window-y="-8"
     inkscape:window-maximized="1"
     inkscape:current-layer="layer1" />
  <defs
     id="defs1" />
  <g
     inkscape:label="Layer 1"
     inkscape:groupmode="layer"
     id="layer1">
    <g
       transform="matrix(0.51025453,0,0,0.51025453,5.1856072,7.0135117)"
       id="g47">
      <path
         d="M 938.368,496.6 H 794.385 a 15.708,15.708 0 0 1 -15.69,-15.69 V 363.69 A 15.708,15.708 0 0 1 794.385,348 h 143.983 a 15.708,15.708 0 0 1 15.69,15.69 V 480.907 A 15.708,15.708 0 0 1 938.368,496.6 Z M 794.385,349.846 a 13.86,13.86 0 0 0 -13.844,13.844 v 117.217 a 13.86,13.86 0 0 0 13.844,13.844 h 143.983 a 13.86,13.86 0 0 0 13.844,-13.844 V 363.69 a 13.86,13.86 0 0 0 -13.844,-13.844 z"
         transform="translate(-778.695,-336.001)"
         fill="#3f3d56"
         id="path37" />
      <path
         d="m 927.684,385.733 h -72.666 a 2.52,2.52 0 0 1 -2.562,-2.3 2.428,2.428 0 0 1 2.425,-2.558 h 73.97 c 2.437,2.141 0.952,4.856 -1.167,4.856 z"
         transform="translate(-784.377,-338.534)"
         fill="#3f3d56"
         id="path38" />
      <path
         d="m 927.684,399.543 h -72.666 a 2.521,2.521 0 0 1 -2.562,-2.3 2.428,2.428 0 0 1 2.425,-2.558 h 73.97 c 2.437,2.141 0.952,4.856 -1.167,4.856 z"
         transform="translate(-784.377,-339.598)"
         fill="#3f3d56"
         id="path39" />
      <path
         d="m 836.133,405.171 h -22.177 a 2.734,2.734 0 0 1 -2.731,-2.731 v -26.171 a 2.734,2.734 0 0 1 2.731,-2.731 h 22.177 a 2.735,2.735 0 0 1 2.731,2.731 v 26.171 a 2.734,2.734 0 0 1 -2.731,2.731 z"
         transform="translate(-781.201,-337.969)"
         fill="#6c63ff"
         id="path40" />
      <path
         d="m 931.133,483.1 h -22.177 a 2.734,2.734 0 0 1 -2.731,-2.731 v -15.1 a 2.734,2.734 0 0 1 2.731,-2.731 h 22.177 a 2.735,2.735 0 0 1 2.731,2.731 v 15.1 a 2.734,2.734 0 0 1 -2.731,2.731 z"
         transform="translate(-788.519,-344.825)"
         fill="#3f3d56"
         id="path41" />
      <path
         d="m 924.264,427.819 h -110.9 a 2.521,2.521 0 0 1 -2.562,-2.3 2.428,2.428 0 0 1 2.424,-2.558 h 112.205 c 2.437,2.141 0.952,4.856 -1.167,4.856 z"
         transform="translate(-781.168,-341.776)"
         fill="#cccccc"
         id="path42" />
      <path
         d="m 924.264,441.633 h -110.9 a 2.52,2.52 0 0 1 -2.562,-2.3 2.428,2.428 0 0 1 2.424,-2.558 h 112.205 c 2.437,2.143 0.952,4.858 -1.167,4.858 z"
         transform="translate(-781.168,-342.84)"
         fill="#cccccc"
         id="path43" />
      <path
         d="m 924.264,455.438 h -110.9 a 2.52,2.52 0 0 1 -2.562,-2.3 2.428,2.428 0 0 1 2.424,-2.558 h 112.205 c 2.437,2.143 0.952,4.858 -1.167,4.858 z"
         transform="translate(-781.168,-343.904)"
         fill="#cccccc"
         id="path44" />
      <path
         d="m 866.117,469.251 h -52.755 a 2.52,2.52 0 0 1 -2.562,-2.3 2.428,2.428 0 0 1 2.424,-2.558 h 54.059 c 2.437,2.141 0.952,4.856 -1.167,4.856 z"
         transform="translate(-781.168,-344.968)"
         fill="#cccccc"
         id="path45" />
      <path
         d="m 866.117,483.057 h -52.755 a 2.521,2.521 0 0 1 -2.562,-2.3 2.428,2.428 0 0 1 2.424,-2.558 h 54.059 c 2.438,2.143 0.953,4.858 -1.166,4.858 z"
         transform="translate(-781.168,-346.031)"
         fill="#cccccc"
         id="path46" />
      <path
         d="M 910.531,359 H 829.31 a 4.62,4.62 0 0 1 -4.615,-4.615 v -14.77 A 4.62,4.62 0 0 1 829.31,335 h 81.221 a 4.62,4.62 0 0 1 4.615,4.615 v 14.767 A 4.62,4.62 0 0 1 910.531,359 Z"
         transform="translate(-782.238,-335)"
         fill="#6c63ff"
         id="path47" />
    </g>
  </g>
</svg>
