<svg xmlns="http://www.w3.org/2000/svg" width="491" height="491" viewBox="0 0 491 491">
  <circle cx="245.5" cy="245.5" r="245.5" style="fill: #e0defd"/>
  <g>
    <path d="M534.45,233.48H235.07A10.1,10.1,0,0,1,225,223.42V106.1A10.1,10.1,0,0,1,235.07,96H534.45a10.11,10.11,0,0,1,10.07,10.07V223.42A10.1,10.1,0,0,1,534.45,233.48Z" transform="translate(-116.5 -4.5)" style="fill: #f2f2f2"/>
    <path d="M464.64,227.07H282.57a51.22,51.22,0,0,1-51.15-51.16V153.6a51.21,51.21,0,0,1,51.15-51.15H486.89A51.21,51.21,0,0,1,538,153.6,73.51,73.51,0,0,1,464.64,227.07Z" transform="translate(-116.5 -4.5)" style="fill: #fff"/>
    <path d="M417.66,136.06H297.34a2.59,2.59,0,0,1,0-5.18H417.66a2.59,2.59,0,0,1,0,5.18Z" transform="translate(-116.5 -4.5)" style="fill: #e6e6e6"/>
    <path d="M478.59,163.73H297.34a2.59,2.59,0,1,1,0-5.18H478.59a2.59,2.59,0,1,1,0,5.18Z" transform="translate(-116.5 -4.5)" style="fill: #e6e6e6"/>
    <path d="M478.59,191.39H297.34a2.59,2.59,0,0,1,0-5.18H478.59a2.62,2.62,0,0,1,2.59,2.59,2.57,2.57,0,0,1-2.56,2.59Z" transform="translate(-116.5 -4.5)" style="fill: #e6e6e6"/>
    <path d="M478.59,191.39H297.34a2.59,2.59,0,0,1,0-5.18H478.59a2.62,2.62,0,0,1,2.59,2.59,2.57,2.57,0,0,1-2.56,2.59Z" transform="translate(-116.5 -4.5)" style="fill: #e6e6e6"/>
    <path d="M405,166.91a5.32,5.32,0,0,0,5.52,5.12h0a4.94,4.94,0,0,0,.94-.12l9.89,16.25,4.24-8.95-10.06-14.07a5.39,5.39,0,0,0-6.65-3.71h0a5.56,5.56,0,0,0-3.88,5.48Z" transform="translate(-116.5 -4.5)" style="fill: #ffb6b6"/>
    <path d="M479.24,213.41l-34.15-18.48-10.77-10.07s-4.65-1.24-2.94-2.77-3.18-3-3.18-3l-5.77-5.41-8.18,5.82,2.35,3.71s-.17,6.12,3.18,4.95,2.53,3.88,2.53,3.88L442.21,223Z" transform="translate(-116.5 -4.5)" style="fill: #3f3d56"/>
    <circle cx="262.08" cy="158.17" r="33.32" style="fill: #6c63ff"/>
    <polygon points="362.8 451.55 355.91 451.55 352.61 424.82 362.8 424.82 362.8 451.55" style="fill: #ffb6b6"/>
    <path d="M483,468.06h-4.94l-.88-4.71-2.3,4.71H461.69a3,3,0,0,1-2.94-2.95,2.84,2.84,0,0,1,1.3-2.41l10.53-7.24v-4.77l11.07.65Z" transform="translate(-116.5 -4.5)" style="fill: #2f2e41"/>
    <polygon points="307.4 451.55 300.52 451.55 297.22 424.82 307.4 424.82 307.4 451.55" style="fill: #ffb6b6"/>
    <path d="M427.61,468.06h-4.94l-.89-4.71-2.29,4.71H406.3a3,3,0,0,1-2.94-2.95,2.8,2.8,0,0,1,1.29-2.41l10.54-7.24v-4.77l11.07.65Z" transform="translate(-116.5 -4.5)" style="fill: #2f2e41"/>
    <rect x="320.53" y="249.53" width="34.97" height="39.79" style="fill: #ffb6b6"/>
    <path d="M437.8,273.63l-5.89,7-10.24,21.49L395.94,363.4l-5.47,13,4.41,22.9s.71,16.12.71,18.77c0,5.36,4.47,8.36,4.47,8.36l3.3,17.19,32-1.35s-1.12-19-7.83-23.73-9.77-29.66-9.77-29.66l-3.65-11.07,35.5-42.09.23,14.72.12,7.12s-5.18,46.33.88,55.27.12,8,.12,8l.3,18.54,37.9.3-8.35-53.39s-4.24-3.36-2-6.71-2.17-7.48-2.17-7.48l2-41.68s-2.24-7.18.41-8.12.35-7.12.35-7.12l.42-8.07-7.77-25Z" transform="translate(-116.5 -4.5)" style="fill: #2f2e41"/>
    <path d="M472.53,254l3.76-11.31L479,239l1.06-10.78c0-29-6.47-24.19-6.47-24.19l-3.77-10.24-17.19-.53-11.07,10.54L432.44,207l-3.59,18.6,6.53,19.84L437,256.2c-3.06,5.71-2.82,3-.29,7.24l30.37,8.36c10.77,3.77,10.77-5.88,8.6-8.36S472.53,254,472.53,254Z" transform="translate(-116.5 -4.5)" style="fill: #3f3d56"/>
    <circle cx="342.49" cy="169.18" r="15.95" style="fill: #ffb6b6"/>
    <path d="M443.45,198.81" transform="translate(-116.5 -4.5)" style="fill: #2f2e41"/>
    <path d="M480.3,195a2,2,0,0,1-.71,2.7,3,3,0,0,1-.41.18c-2.12.71-3.48,2.77-5,4.41s-4,3-5.94,1.89-2.06-4-3.71-5.54-4.24-1.29-6.12-.17l-.06.06a1.93,1.93,0,0,1-2.67-.53l0-.06a2,2,0,0,1-.29-1.41c.64-3.48,1.29-7,1.94-10.48a35.13,35.13,0,0,1-7.36,11.12,7.92,7.92,0,0,1-3.18,2.24c-1.12.35-2.17-.82-3.29-.59,2.7-2.35,11.77-17.48,10.12-27.61-1.88.24-3.82.42-5.71.65a5.65,5.65,0,0,0-1.29-2.41,6.34,6.34,0,0,1-.36,2.59c-.82.12-1.59.17-2.41.29a5,5,0,0,1-3.24-.35c-1.59-.94-1.65-3.24-1.17-5.06A18.61,18.61,0,0,1,449.63,155c4.88-2.3,6.35,2.82,11.54,1.17,10.24-3.23,18.07,2.3,20.77,12.54C484.36,177.27,482.65,186.39,480.3,195Z" transform="translate(-116.5 -4.5)" style="fill: #2f2e41"/>
    <path d="M524.44,468.41H504.9l-.06-.18-.7-1.41c-2-4.3-2.89-9.24-3.59-13.6l-.59-3.29a2,2,0,0,1,3.18-2c2.94,2.17,5.94,4.29,8.88,6.47,1.12.83,2.42,1.77,3.65,2.77.12-.59.24-1.18.36-1.71a2,2,0,0,1,2.35-1.54h.06a2.3,2.3,0,0,1,1.3.88l2.29,3.65c1.65,2.71,3.12,5.3,2.83,8.19v.11a5.36,5.36,0,0,1-.36,1.36Z" transform="translate(-116.5 -4.5)" style="fill: #f0f0f0"/>
    <path d="M544.05,468.82,358.39,469a.71.71,0,0,1-.71-.71.7.7,0,0,1,.71-.7h0l185.66-.18a.7.7,0,0,1,.7.71A.7.7,0,0,1,544.05,468.82Z" transform="translate(-116.5 -4.5)" style="fill: #cacaca"/>
    <path d="M375.52,207.52l-20.43-17.24a3.47,3.47,0,0,1-.43-4.87l0,0,3.77-4.47a3.44,3.44,0,0,1,4.86-.43h0l20.43,17.25a3.47,3.47,0,0,1,.43,4.87l0,0-3.77,4.47a3.46,3.46,0,0,1-4.87.43Z" transform="translate(-116.5 -4.5)" style="fill: #3f3d56"/>
    <path d="M356.15,185.8a1.8,1.8,0,0,0,.18,2.54l.06,0,20.42,17.25a1.8,1.8,0,0,0,2.54-.18l0-.06,3.77-4.47a1.8,1.8,0,0,0-.18-2.54l-.06,0-20.42-17.25a1.8,1.8,0,0,0-2.54.18l-.05.06Z" transform="translate(-116.5 -4.5)" style="fill: #fff"/>
    <path d="M368.16,192.51a1,1,0,0,1-.65.36l-3.24,0a.87.87,0,0,1-.82-.76c-.06-.41.35-.77.76-.82l2.12-.06-2.06-5.48a.79.79,0,0,1,1.48-.53l2.47,6.48a.72.72,0,0,1-.06.76Z" transform="translate(-116.5 -4.5)" style="fill: #6c63ff"/>
    <path d="M368.57,193.87a5.33,5.33,0,0,1,4.54,6v0a5.86,5.86,0,0,1-.23.94l15.07,11.6-9.36,3.24-12.89-11.54a5.38,5.38,0,0,1,2.88-10.3Z" transform="translate(-116.5 -4.5)" style="fill: #ffb6b6"/>
    <path d="M447,199.58,408.42,223.3s-15.54-5.77-12.54-8.42-6.65-4.47-6.65-4.47l-10.71-7.18-6.18,7.18s1.12,11.71,3.06,9.65,4.77,3.53,4.77,3.53.82,6.18,6.3,4.65S406.6,243,406.6,243L454,225.3Z" transform="translate(-116.5 -4.5)" style="fill: #3f3d56"/>
    <path d="M377.4,176a2.78,2.78,0,0,1-2.3-1.18L368,165.43a2.86,2.86,0,0,1,4.59-3.41h0l4.59,6.18,11.89-17.78a2.89,2.89,0,0,1,4.83,3.18l-14.13,21.19a3,3,0,0,1-2.29,1.3A.17.17,0,0,0,377.4,176Z" transform="translate(-116.5 -4.5)" style="fill: #fff"/>
  </g>
</svg>
