<?xml version="1.0" encoding="UTF-8" standalone="no"?>
<svg
   width="800.423"
   height="638.973"
   viewBox="0 0 800.423 638.973"
   role="img"
   artist="Katerina Limpitsouni"
   source="https://undraw.co/"
   version="1.1"
   id="svg84"
   sodipodi:docname="undraw_saving-notes_wp71.svg"
   inkscape:version="1.3 (0e150ed6c4, 2023-07-21)"
   xmlns:inkscape="http://www.inkscape.org/namespaces/inkscape"
   xmlns:sodipodi="http://sodipodi.sourceforge.net/DTD/sodipodi-0.dtd"
   xmlns="http://www.w3.org/2000/svg"
   xmlns:svg="http://www.w3.org/2000/svg">
  <defs
     id="defs84">
    <clipPath
       clipPathUnits="userSpaceOnUse"
       id="clipPath84">
      <rect
         style="fill:none;stroke:#cccccc"
         id="rect85"
         width="782.8009"
         height="638.18707"
         x="-712.94006"
         y="-412.06107" />
    </clipPath>
    <clipPath
       clipPathUnits="userSpaceOnUse"
       id="clipPath85">
      <rect
         style="fill:none;stroke:#cccccc"
         id="rect86"
         width="782.8009"
         height="638.18707"
         x="-208.07805"
         y="0.78594178" />
    </clipPath>
    <clipPath
       clipPathUnits="userSpaceOnUse"
       id="clipPath86">
      <rect
         style="fill:none;stroke:#cccccc"
         id="rect87"
         width="782.8009"
         height="638.18707"
         x="232.09094"
         y="83.657944" />
    </clipPath>
    <clipPath
       clipPathUnits="userSpaceOnUse"
       id="clipPath87">
      <rect
         style="fill:none;stroke:#cccccc"
         id="rect88"
         width="782.8009"
         height="638.18707"
         x="-587.50305"
         y="-231.16006" />
    </clipPath>
    <clipPath
       clipPathUnits="userSpaceOnUse"
       id="clipPath88">
      <rect
         style="fill:none;stroke:#cccccc"
         id="rect89"
         width="782.8009"
         height="638.18707"
         x="-303.18704"
         y="-360.68707" />
    </clipPath>
    <clipPath
       clipPathUnits="userSpaceOnUse"
       id="clipPath89">
      <rect
         style="fill:none;stroke:#cccccc"
         id="rect90"
         width="782.8009"
         height="638.18707"
         x="-46.34605"
         y="-158.24506" />
    </clipPath>
  </defs>
  <sodipodi:namedview
     id="namedview84"
     pagecolor="#ffffff"
     bordercolor="#000000"
     borderopacity="0.25"
     inkscape:showpageshadow="2"
     inkscape:pageopacity="0.0"
     inkscape:pagecheckerboard="0"
     inkscape:deskcolor="#d1d1d1"
     inkscape:zoom="1.2723542"
     inkscape:cx="400.43881"
     inkscape:cy="290.40656"
     inkscape:window-width="1920"
     inkscape:window-height="1009"
     inkscape:window-x="-8"
     inkscape:window-y="-8"
     inkscape:window-maximized="1"
     inkscape:current-layer="g84" />
  <g
     transform="translate(-607 -170.695)"
     id="g84">
    <g
       transform="translate(654.132 329.726)"
       id="g17"
       clip-path="url(#clipPath89)">
      <path
         d="M610.133,252.315H552.375a4.486,4.486,0,0,1-4.481-4.481v-24.9h0a33.36,33.36,0,1,1,66.721,0v24.9A4.486,4.486,0,0,1,610.133,252.315Z"
         transform="translate(-461.716 -189.578)"
         fill="#2f2e41"
         id="path1" />
      <path
         d="M672.724,687.794h29.537a18.824,18.824,0,0,1,18.823,18.821v.613l-48.359,0Z"
         transform="translate(-471.332 -227.957)"
         fill="#2f2e41"
         id="path2" />
      <path
         d="M519.19,659.762l24.855,15.957h0a18.824,18.824,0,0,1,5.669,26.008l-.33.515-40.694-26.126Z"
         transform="translate(-458.696 -225.798)"
         fill="#2f2e41"
         id="path3" />
      <path
         d="M713.765,458.143a13.523,13.523,0,0,0,10.189-24.851l-28.7-32.566-24.279,5.245,34.147,33.446a13.45,13.45,0,0,0,8.647,18.725Z"
         transform="translate(-471.197 -205.843)"
         fill="#ed9da0"
         id="path4" />
      <path
         d="M440.016,142.773l71.544,89.8,21.808-10.012L449.276,91.647Z"
         transform="translate(-291.887 -7.059)"
         fill="#e6e6e6"
         id="path5" />
      <path
         d="M472.13,465.551a13.523,13.523,0,0,1-11.067-24.472l27.526-33.567,24.45,4.377L480.1,446.53a13.45,13.45,0,0,1-7.975,19.021Z"
         transform="translate(-454.523 -206.366)"
         fill="#ed9da0"
         id="path6" />
      <path
         d="M501.866,440.824l17.051-.268-2.051,58.115h-15Z"
         transform="translate(-296.651 -33.938)"
         fill="#ed9da0"
         id="path7" />
      <path
         d="M376.941,424.146,395.567,436.1l-37.258,44.824-12.621-8.1Z"
         transform="translate(-284.62 -32.673)"
         fill="#ed9da0"
         id="path8" />
      <path
         d="M546.279,409.819s41.385-137.455,54.685-139.312,34.729,35.269,34.729,35.269c27.784,35.449,56.434,150.278,56.434,150.278s-47.76,2.989-82.673,21.564-76.115-.94-76.115-.94Z"
         transform="translate(-460.595 -195.807)"
         fill="#e6e6e6"
         id="path9" />
      <path
         d="M546.279,409.819s41.385-137.455,54.685-139.312,29.287,35.646,29.287,35.646c13.844,57.224,61.877,149.9,61.877,149.9s-47.76,2.989-82.673,21.564-76.115-.94-76.115-.94Z"
         transform="translate(-460.595 -195.807)"
         fill="#6c63ff"
         opacity="0.1"
         style="isolation:isolate"
         id="path10" />
      <path
         d="M405.079,186.517v69.07L396.95,355.64l-40.61,75.683,19.382,13.844L431.1,373.177,453,301.694l34.4,158.241,25.843-1.846L495.3,238.691l-34.058-61.756Z"
         transform="translate(-285.441 -13.63)"
         fill="#2f2e41"
         id="path11" />
      <path
         d="M4.819,0h21.5V24H0Z"
         transform="translate(110.677 55.378)"
         fill="#ed9da0"
         id="path12" />
      <path
         d="M624.117,301.893c12.922,12.922.923,26.766.923,26.766l14.767,33.227-58.147,15.69-20.32-90.8,13.844-14.767c27.689-.923,27.7-1.5,27.7-1.5C607.74,275.26,624.117,301.893,624.117,301.893Z"
         transform="translate(-462.752 -195.812)"
         fill="#6c63ff"
         id="path13" />
      <path
         d="M555.028,277.774h0a24.808,24.808,0,0,0-7.178,31.685c6.662,12.716,13.827,32.415,10.132,54.039-6.686,39.136-28.119,68.87-40.058,78.419-4.156,3.324-4.3,8.165-3.691,11.641,1.7,9.71,11.119,20.729,17.631,22.938a4.208,4.208,0,0,0,1.36.214c10.579,0,36.6-33.689,66.5-99.505,18.623-40.99,5.107-73.855-9.511-94.209a24.813,24.813,0,0,0-34.867-5.458Z"
         transform="translate(-459.102 -195.98)"
         fill="#e6e6e6"
         id="path14" />
      <path
         d="M404.482,128.812,320.507,238.995l-22.151-9.23,79.375-133.83Z"
         transform="translate(-280.974 -7.39)"
         fill="#e6e6e6"
         id="path15" />
      <circle
         cx="24.459"
         cy="24.459"
         r="24.459"
         transform="translate(93.2 47.432) rotate(-61.337)"
         fill="#ed9da0"
         id="circle15" />
      <path
         d="M623.914,226.176H588.6l-.362-5.071-1.811,5.071h-5.438l-.718-10.05-3.589,10.05H566.155v-.5a26.419,26.419,0,0,1,26.389-26.39h4.979a26.419,26.419,0,0,1,26.39,26.39Z"
         transform="translate(-463.123 -190.326)"
         fill="#2f2e41"
         id="path16" />
      <path
         d="M587.931,258.632a4.575,4.575,0,0,1-.793-.07L561.277,254V211.258h28.468l-.7.822c-9.806,11.437-2.418,29.981,2.858,40.017a4.415,4.415,0,0,1-.351,4.687A4.463,4.463,0,0,1,587.931,258.632Z"
         transform="translate(-462.747 -191.248)"
         fill="#2f2e41"
         id="path17" />
    </g>
    <g
       transform="translate(910.973 532.168)"
       id="g26"
       clip-path="url(#clipPath88)">
      <path
         d="M489.264,501.018l-140.887,29.7A15.708,15.708,0,0,1,329.788,518.6L305.612,403.9a15.708,15.708,0,0,1,12.117-18.589l140.887-29.7a15.708,15.708,0,0,1,18.589,12.117l24.176,114.7A15.708,15.708,0,0,1,489.264,501.018ZM318.11,387.118a13.86,13.86,0,0,0-10.691,16.4l24.176,114.7A13.86,13.86,0,0,0,348,528.908l140.887-29.7a13.86,13.86,0,0,0,10.691-16.4L475.4,368.113A13.86,13.86,0,0,0,459,357.421Z"
         transform="translate(-305.275 -355.278)"
         fill="#3f3d56"
         id="path18" />
      <path
         d="M455.74,396.2l-71.1,14.987a2.521,2.521,0,0,1-2.981-1.72,2.428,2.428,0,0,1,1.845-3L455.88,391.21c2.826,1.593,1.933,4.555-.14,4.992Z"
         transform="translate(-311.153 -358.046)"
         fill="#e6e6e6"
         id="path19" />
      <path
         d="M458.588,409.715l-71.1,14.987a2.52,2.52,0,0,1-2.981-1.72,2.428,2.428,0,0,1,1.845-3l72.379-15.256c2.826,1.593,1.933,4.555-.14,4.992Z"
         transform="translate(-311.372 -359.087)"
         fill="#e6e6e6"
         id="path20" />
      <path
         d="M370.171,434.986l-21.7,4.574a2.734,2.734,0,0,1-3.236-2.109l-5.4-25.608a2.734,2.734,0,0,1,2.109-3.236l21.7-4.574a2.735,2.735,0,0,1,3.236,2.109l5.4,25.608a2.734,2.734,0,0,1-2.109,3.236Z"
         transform="translate(-307.933 -359.029)"
         fill="#e6e6e6"
         id="path21" />
      <path
         d="M461.074,437.43,352.556,460.3a2.521,2.521,0,0,1-2.981-1.72,2.428,2.428,0,0,1,1.845-3l109.794-23.143c2.826,1.593,1.933,4.555-.14,4.992Z"
         transform="translate(-308.681 -361.222)"
         fill="#e6e6e6"
         id="path22" />
      <path
         d="M463.923,450.947,355.405,473.821a2.521,2.521,0,0,1-2.981-1.72,2.428,2.428,0,0,1,1.845-3l109.794-23.143c2.826,1.593,1.933,4.555-.14,4.992Z"
         transform="translate(-308.901 -362.263)"
         fill="#e6e6e6"
         id="path23" />
      <path
         d="M466.77,464.455,358.253,487.329a2.52,2.52,0,0,1-2.981-1.72,2.428,2.428,0,0,1,1.845-3L466.91,459.463C469.737,461.056,468.843,464.018,466.77,464.455Z"
         transform="translate(-309.12 -363.304)"
         fill="#e6e6e6"
         id="path24" />
      <path
         d="M469.619,477.971,361.1,500.845a2.521,2.521,0,0,1-2.98-1.72,2.428,2.428,0,0,1,1.845-3l109.794-23.143c2.826,1.593,1.933,4.555-.14,4.992Z"
         transform="translate(-309.34 -364.345)"
         fill="#e6e6e6"
         id="path25" />
      <path
         d="M472.466,491.48,363.949,514.354a2.52,2.52,0,0,1-2.98-1.72,2.428,2.428,0,0,1,1.845-3l109.794-23.143c2.826,1.593,1.933,4.555-.14,4.992Z"
         transform="translate(-309.559 -365.386)"
         fill="#e6e6e6"
         id="path26" />
    </g>
    <path
       d="M583.878,721.846H232.228a.923.923,0,1,1,0-1.846h351.65a.923.923,0,0,1,0,1.846Z"
       transform="translate(375.695 87.823)"
       fill="#e6e6e6"
       id="path48"
       clip-path="url(#clipPath86)" />
    <g
       transform="translate(815.864 170.695)"
       id="g71"
       clip-path="url(#clipPath85)">
      <circle
         cx="5.969"
         cy="5.969"
         r="5.969"
         transform="translate(0 0)"
         fill="#f2f2f2"
         id="circle48" />
      <circle
         cx="5.969"
         cy="5.969"
         r="5.969"
         transform="translate(0 23.788)"
         fill="#f2f2f2"
         id="circle49" />
      <circle
         cx="5.969"
         cy="5.969"
         r="5.969"
         transform="translate(0 47.576)"
         fill="#f2f2f2"
         id="circle50" />
      <circle
         cx="5.969"
         cy="5.969"
         r="5.969"
         transform="translate(0 71.364)"
         fill="#f2f2f2"
         id="circle51" />
      <circle
         cx="5.969"
         cy="5.969"
         r="5.969"
         transform="translate(24.92 0)"
         fill="#f2f2f2"
         id="circle52" />
      <circle
         cx="5.969"
         cy="5.969"
         r="5.969"
         transform="translate(24.92 23.788)"
         fill="#f2f2f2"
         id="circle53" />
      <circle
         cx="5.969"
         cy="5.969"
         r="5.969"
         transform="translate(24.92 47.576)"
         fill="#f2f2f2"
         id="circle54" />
      <circle
         cx="5.969"
         cy="5.969"
         r="5.969"
         transform="translate(24.92 71.364)"
         fill="#f2f2f2"
         id="circle55" />
      <circle
         cx="5.969"
         cy="5.969"
         r="5.969"
         transform="translate(49.84 0)"
         fill="#f2f2f2"
         id="circle56" />
      <circle
         cx="5.969"
         cy="5.969"
         r="5.969"
         transform="translate(49.84 23.788)"
         fill="#f2f2f2"
         id="circle57" />
      <circle
         cx="5.969"
         cy="5.969"
         r="5.969"
         transform="translate(49.84 47.576)"
         fill="#f2f2f2"
         id="circle58" />
      <circle
         cx="5.969"
         cy="5.969"
         r="5.969"
         transform="translate(49.84 71.364)"
         fill="#f2f2f2"
         id="circle59" />
      <circle
         cx="5.969"
         cy="5.969"
         r="5.969"
         transform="translate(74.76 0)"
         fill="#f2f2f2"
         id="circle60" />
      <circle
         cx="5.969"
         cy="5.969"
         r="5.969"
         transform="translate(74.76 23.788)"
         fill="#f2f2f2"
         id="circle61" />
      <circle
         cx="5.969"
         cy="5.969"
         r="5.969"
         transform="translate(74.76 47.576)"
         fill="#f2f2f2"
         id="circle62" />
      <circle
         cx="5.969"
         cy="5.969"
         r="5.969"
         transform="translate(74.76 71.364)"
         fill="#f2f2f2"
         id="circle63" />
      <circle
         cx="5.969"
         cy="5.969"
         r="5.969"
         transform="translate(99.68 0)"
         fill="#f2f2f2"
         id="circle64" />
      <circle
         cx="5.969"
         cy="5.969"
         r="5.969"
         transform="translate(99.68 23.788)"
         fill="#f2f2f2"
         id="circle65" />
      <circle
         cx="5.969"
         cy="5.969"
         r="5.969"
         transform="translate(99.68 47.576)"
         fill="#f2f2f2"
         id="circle66" />
      <circle
         cx="5.969"
         cy="5.969"
         r="5.969"
         transform="translate(99.68 71.364)"
         fill="#f2f2f2"
         id="circle67" />
      <circle
         cx="5.969"
         cy="5.969"
         r="5.969"
         transform="translate(124.6 0)"
         fill="#f2f2f2"
         id="circle68" />
      <circle
         cx="5.969"
         cy="5.969"
         r="5.969"
         transform="translate(124.6 23.788)"
         fill="#f2f2f2"
         id="circle69" />
      <circle
         cx="5.969"
         cy="5.969"
         r="5.969"
         transform="translate(124.6 47.576)"
         fill="#f2f2f2"
         id="circle70" />
      <circle
         cx="5.969"
         cy="5.969"
         r="5.969"
         transform="translate(124.6 71.364)"
         fill="#f2f2f2"
         id="circle71" />
    </g>
    <g
       transform="translate(1320.726 583.542)"
       id="g83"
       clip-path="url(#clipPath84)">
      <circle
         cx="5.969"
         cy="5.969"
         r="5.969"
         fill="#f2f2f2"
         id="circle72" />
      <circle
         cx="5.969"
         cy="5.969"
         r="5.969"
         transform="translate(0 23.788)"
         fill="#f2f2f2"
         id="circle73" />
      <circle
         cx="5.969"
         cy="5.969"
         r="5.969"
         transform="translate(0 47.576)"
         fill="#f2f2f2"
         id="circle74" />
      <circle
         cx="5.969"
         cy="5.969"
         r="5.969"
         transform="translate(24.92)"
         fill="#f2f2f2"
         id="circle75" />
      <circle
         cx="5.969"
         cy="5.969"
         r="5.969"
         transform="translate(24.92 23.788)"
         fill="#f2f2f2"
         id="circle76" />
      <circle
         cx="5.969"
         cy="5.969"
         r="5.969"
         transform="translate(24.92 47.576)"
         fill="#f2f2f2"
         id="circle77" />
      <circle
         cx="5.969"
         cy="5.969"
         r="5.969"
         transform="translate(49.84)"
         fill="#f2f2f2"
         id="circle78" />
      <circle
         cx="5.969"
         cy="5.969"
         r="5.969"
         transform="translate(49.84 23.788)"
         fill="#f2f2f2"
         id="circle79" />
      <circle
         cx="5.969"
         cy="5.969"
         r="5.969"
         transform="translate(49.84 47.576)"
         fill="#f2f2f2"
         id="circle80" />
      <circle
         cx="5.969"
         cy="5.969"
         r="5.969"
         transform="translate(74.76)"
         fill="#f2f2f2"
         id="circle81" />
      <circle
         cx="5.969"
         cy="5.969"
         r="5.969"
         transform="translate(74.76 23.788)"
         fill="#f2f2f2"
         id="circle82" />
      <circle
         cx="5.969"
         cy="5.969"
         r="5.969"
         transform="translate(74.76 47.576)"
         fill="#f2f2f2"
         id="circle83" />
    </g>
  </g>
</svg>
