<?xml version="1.0" encoding="UTF-8" standalone="no"?>
<svg
   width="800.64"
   height="533.072"
   viewBox="0 0 800.64 533.072"
   role="img"
   artist="Katerina Limpitsouni"
   source="https://undraw.co/"
   version="1.1"
   id="svg20"
   sodipodi:docname="undraw_personal-information_h7kf.svg"
   inkscape:version="1.3 (0e150ed6c4, 2023-07-21)"
   xmlns:inkscape="http://www.inkscape.org/namespaces/inkscape"
   xmlns:sodipodi="http://sodipodi.sourceforge.net/DTD/sodipodi-0.dtd"
   xmlns="http://www.w3.org/2000/svg"
   xmlns:svg="http://www.w3.org/2000/svg">
  <defs
     id="defs20" />
  <sodipodi:namedview
     id="namedview20"
     pagecolor="#ffffff"
     bordercolor="#000000"
     borderopacity="0.25"
     inkscape:showpageshadow="2"
     inkscape:pageopacity="0.0"
     inkscape:pagecheckerboard="0"
     inkscape:deskcolor="#d1d1d1"
     showgrid="false"
     inkscape:zoom="1.5251222"
     inkscape:cx="400.29578"
     inkscape:cy="266.53601"
     inkscape:window-width="1920"
     inkscape:window-height="1009"
     inkscape:window-x="-8"
     inkscape:window-y="-8"
     inkscape:window-maximized="1"
     inkscape:current-layer="svg20" />
  <g
     transform="matrix(-1,0,0,1,1255.106,-212.002)"
     id="g20">
    <path
       d="m 482.342,713.12 a 13.987,13.987 0 0 1 -17.617,-4.2 c -0.395,-0.543 0.43,-1.182 0.826,-0.638 a 12.952,12.952 0 0 0 16.4,3.877 c 0.6,-0.307 0.99,0.66 0.4,0.965 z"
       transform="translate(753.091,20.702)"
       fill="#ffffff"
       id="path1" />
    <path
       d="m 473.349,676.436 a 7.917,7.917 0 0 0 5.451,-5.169 c 0.208,-0.639 1.169,-0.233 0.963,0.4 a 8.872,8.872 0 0 1 -6.018,5.732 0.539,0.539 0 0 1 -0.681,-0.285 0.524,0.524 0 0 1 0.285,-0.678 z"
       transform="translate(751.211,29.008)"
       fill="#ffffff"
       id="path2" />
    <path
       d="m 977.768,398.345 c 0,110.6 -70.1,204.826 -168.279,240.682 A 253.338,253.338 0 0 1 763.441,651.114 257.9,257.9 0 0 1 634.8,639.431 C 536,603.87 465.387,509.321 465.433,398.291 c 0,-141.421 114.694,-256.114 256.169,-256.114 a 256.149,256.149 0 0 1 256.166,256.168 z"
       transform="translate(277.338,90.56)"
       fill="#f2f2f2"
       id="path3" />
    <path
       d="m 858.3,767.84 a 253.333,253.333 0 0 1 -46.048,12.087 257.9,257.9 0 0 1 -128.643,-11.683 l 11.83,-47.469 0.714,-2.849 24.142,0.093 121.284,0.435 1.553,4.588 z"
       transform="translate(228.525,-38.253)"
       fill="#2f2e41"
       id="path4" />
    <rect
       width="222.51801"
       height="251.787"
       rx="8"
       transform="translate(454.467,212.002)"
       fill="#e6e6e6"
       id="rect4"
       x="0"
       y="0" />
    <rect
       width="214.194"
       height="241.134"
       rx="5"
       transform="translate(458.435,217.329)"
       fill="#ffffff"
       id="rect5"
       x="0"
       y="0" />
    <circle
       cx="12.007"
       cy="12.007"
       r="12.007"
       transform="translate(553.72,425.875)"
       fill="#e6e6e6"
       id="circle5" />
    <rect
       width="68.960999"
       height="7.0549998"
       transform="translate(494.737,302.685)"
       fill="#e6e6e6"
       id="rect6"
       x="0"
       y="0" />
    <rect
       width="104.081"
       height="7.0549998"
       transform="translate(494.737,323.825)"
       fill="#6c63ff"
       id="rect7"
       x="0"
       y="0" />
    <rect
       width="93.864998"
       height="7.0549998"
       transform="translate(494.737,345.098)"
       fill="#e6e6e6"
       id="rect8"
       x="0"
       y="0" />
    <rect
       width="144.94701"
       height="7.0549998"
       transform="translate(494.737,365.809)"
       fill="#6c63ff"
       id="rect9"
       x="0"
       y="0" />
    <rect
       width="118.129"
       height="7.0549998"
       transform="translate(496.244,385.533)"
       fill="#e6e6e6"
       id="rect10"
       x="0"
       y="0" />
    <path
       d="m 470.813,618.97 a 23.1,23.1 0 0 1 2.322,2.795 L 581.9,619.1 l 12.688,-23.186 37.494,14.575 -18.482,43.233 a 17.551,17.551 0 0 1 -18.242,10.527 L 472.478,649.4 a 23.028,23.028 0 1 1 -1.669,-30.438 z"
       transform="translate(284.957,-10.956)"
       fill="#ed9da0"
       id="path10" />
    <path
       d="m 669.854,605.049 -51.772,-20.714 0.22,-0.921 c 0.222,-0.932 22.257,-93.01 25.183,-107.807 3.048,-15.416 14.183,-19.678 14.656,-19.852 l 0.345,-0.127 20.489,6.237 9,70.7 z"
       transform="translate(243.186,20.431)"
       fill="#6c63ff"
       id="path11" />
    <path
       d="m 718.072,337.454 v -53.26 a 71.369,71.369 0 1 1 142.736,-0.473 q 0,0.236 0,0.473 v 53.26 a 9.6,9.6 0 0 1 -9.587,9.587 H 727.659 a 9.6,9.6 0 0 1 -9.587,-9.587 z"
       transform="translate(220.815,74.807)"
       fill="#2f2e41"
       id="path12" />
    <path
       d="m 2.833,0 45.114,0.787 8.7,51.234 H 0 Z"
       transform="matrix(1,-0.017,0.017,1,977.099,410.416)"
       fill="#ed9da0"
       id="path13" />
    <circle
       cx="52.324001"
       cy="52.324001"
       r="52.324001"
       transform="translate(943.265,315.958)"
       fill="#ed9da0"
       id="circle13" />
    <path
       d="m 670.758,444.348 50.9,-16.681 14.949,-20.5 72.749,4.305 10.681,23.925 38.792,18.33 -5.962,110.715 -10.2,103.614 C 790.224,640.9 692.351,661.603 691.494,661.94 Z"
       transform="translate(231.4,31.274)"
       fill="#6c63ff"
       id="path14" />
    <path
       d="m 696.322,294.05 a 56.519,56.519 0 0 1 56.456,-56.456 h 10.652 a 56.519,56.519 0 0 1 56.455,56.456 v 1.065 h -22.511 l -7.678,-21.5 -1.536,21.5 h -11.633 l -3.874,-10.848 -0.776,10.848 h -75.555 z"
       transform="translate(230.49,68.619)"
       fill="#2f2e41"
       id="path15" />
    <path
       d="m 783.952,365.438 a 9.445,9.445 0 0 1 -0.751,-10.028 c 11.288,-21.47 27.092,-61.143 6.115,-85.609 l -1.5,-1.756 h 60.9 v 91.437 l -55.325,9.762 a 9.786,9.786 0 0 1 -1.7,0.15 9.548,9.548 0 0 1 -7.737,-3.953 z"
       transform="translate(206.489,62.399)"
       fill="#2f2e41"
       id="path16" />
    <path
       d="m 822.345,701.636 a 23.065,23.065 0 0 1 3.631,0.2 l 72,-81.564 -8.376,-25.063 36.18,-17.584 19.139,42.938 a 17.55,17.55 0 0 1 -4.684,20.535 L 845.8,721.11 a 23.028,23.028 0 1 1 -23.455,-19.474 z"
       transform="translate(202.481,-6.863)"
       fill="#ed9da0"
       id="path17" />
    <path
       d="m 910.145,603.483 -30.033,-70.645 11.714,-49.208 12.621,-15.945 a 7.271,7.271 0 0 1 5.841,0.054 c 4.658,1.873 8.617,7.615 11.781,17.065 l 28.147,80.172 z"
       transform="translate(184.561,17.865)"
       fill="#6c63ff"
       id="path18" />
    <g
       transform="translate(540,231.612)"
       id="g19">
      <path
         d="m 210.287,123.086 a 25.532,25.532 0 1 0 25.531,25.532 v 0 a 25.532,25.532 0 0 0 -25.532,-25.532 z m 0,7.659 a 7.659,7.659 0 1 1 -7.659,7.659 v 0 a 7.659,7.659 0 0 1 7.659,-7.659 z m 0,36.874 a 18.6,18.6 0 0 1 -15.319,-8.175 c 0.123,-5.106 10.213,-7.917 15.319,-7.917 5.106,0 15.2,2.811 15.319,7.917 a 18.63,18.63 0 0 1 -15.319,8.174 z"
         transform="translate(-184.753,-123.086)"
         fill="#6c63ff"
         id="path19" />
    </g>
    <path
       d="m 216.534,384.632 c 9.925,-18.188 33.7,-29.707 53.151,-19.324 8.755,4.673 15.714,12.938 17.923,22.707 2.564,11.348 -2.838,22.169 -8.415,31.7 -3.027,5.175 -6.343,10.245 -8.848,15.7 -2.594,5.653 -4.448,12.186 -2.495,18.335 1.758,5.54 6.166,9.569 10.993,12.531 a 81.912,81.912 0 0 0 16.892,7.545 99.428,99.428 0 0 0 37.712,4.879 103.137,103.137 0 0 0 18.8,-3.038 c 6.551,-1.67 12.979,-3.787 19.54,-5.42 10.955,-2.721 23.446,-4.074 33.834,1.392 10.092,5.312 14.609,16.422 16.005,27.229 2.58,19.957 -5.333,40.668 -19.62,54.643 -6.855,6.705 -15.48,12.245 -24.875,14.511 -8.2,1.978 8.219,2.778 16.78,-2.572 17.809,-11.129 29.65,-30.7 32.128,-51.451 1.291,-10.812 -0.023,-22.459 -4.926,-32.273 a 31.594,31.594 0 0 0 -11.613,-12.931 38.179,38.179 0 0 0 -16.537,-5.1 c -13.147,-1.211 -25.778,3.3 -38.249,6.756 a 106.064,106.064 0 0 1 -19.5,3.723 97.406,97.406 0 0 1 -19.244,-0.313 94.761,94.761 0 0 1 -18.647,-4.138 74.637,74.637 0 0 1 -16.926,-7.652 c -4.677,-2.991 -8.722,-7.274 -8.952,-13.111 -0.25,-6.329 2.942,-12.25 5.977,-17.586 6,-10.541 13.4,-20.852 14.968,-33.192 1.37,-10.795 -2.974,-21.434 -10.475,-29.133 a 39.387,39.387 0 0 0 -29.107,-12.075 c -11.129,0.319 -21.784,5.158 -29.97,12.591 a 49.339,49.339 0 0 0 -10.108,12.84 c -1.356,2.484 2.438,4.7 3.795,2.218 z"
       transform="translate(350.18,55.21)"
       fill="#3f3d56"
       id="path20" />
  </g>
</svg>
